<svg xmlns="http://www.w3.org/2000/svg" width="375" viewBox="0 0 375 375" height="375" version="1.0"><defs><clipPath id="a"><path d="M 98.085938 89.042969 L 295.335938 89.042969 L 295.335938 286.292969 L 98.085938 286.292969 Z M 98.085938 89.042969"/></clipPath></defs><g clip-path="url(#a)"><path d="M 140.472656 89.042969 L 295.339844 89.042969 L 295.339844 286.296875 L 98.085938 286.296875 L 98.085938 256.496094 C 98.597656 257.152344 99.117188 257.808594 99.640625 258.457031 L 99.640625 284.738281 L 293.777344 284.738281 L 293.777344 90.597656 L 139.570312 90.597656 C 139.867188 90.097656 140.15625 89.597656 140.445312 89.09375 Z M 140.472656 89.042969" fill-rule="evenodd"/></g><g><g><g><path d="M 5.359375 0.894531 C 1.964844 0.894531 1.90625 -2.382812 1.847656 -4.347656 L 1.847656 -18.28125 C 0.65625 -39.898438 0.535156 -42.042969 0.59375 -44.363281 C 0.714844 -46.566406 1.847656 -48.058594 3.691406 -48.234375 C 5.894531 -48.414062 7.265625 -46.984375 7.503906 -44.363281 C 7.859375 -41.269531 9.289062 -14.589844 8.753906 -4.289062 C 8.8125 -2.324219 8.8125 0.894531 5.359375 0.894531 Z M 5.359375 0.894531" transform="translate(107.71 187.194)"/></g></g></g><g><g><g><path d="M 3.929688 -10.601562 C -2.382812 -22.210938 0.535156 -37.933594 10.125 -44.484375 C 12.863281 -46.390625 14.234375 -46.628906 19.53125 -46.089844 C 28.703125 -46.746094 37.574219 -40.492188 41.148438 -30.667969 C 43.054688 -25.367188 43.054688 -19.949219 41.148438 -15.007812 C 34.835938 1.308594 14.113281 8.398438 3.929688 -10.601562 Z M 21.082031 -8.632812 C 24.953125 -8.632812 29.773438 -11.492188 32.753906 -15.601562 C 40.136719 -25.546875 29.714844 -38.527344 15.363281 -37.277344 C 15.007812 -37.21875 14.589844 -37.039062 13.695312 -36.148438 C 12.683594 -35.253906 11.316406 -33.945312 9.46875 -34.777344 C 9.46875 -34.71875 9.585938 -33.945312 9.410156 -33.527344 C 7.621094 -29.714844 7.085938 -25.902344 7.921875 -22.035156 C 9.527344 -14.234375 15.066406 -8.632812 21.082031 -8.632812 Z M 21.082031 -8.632812" transform="translate(131.53 187.194)"/></g></g></g><g><g><g><path d="M 1.488281 2.621094 C -0.238281 1.070312 -0.179688 -0.832031 1.609375 -3.214844 C 2.5625 -4.40625 12.503906 -14.828125 14.53125 -16.914062 C 18.9375 -21.558594 18.460938 -21.140625 14.410156 -25.488281 C 13.160156 -26.796875 11.910156 -28.226562 10.71875 -29.597656 C 8.277344 -32.335938 5.835938 -35.074219 2.976562 -37.457031 C 1.25 -38.945312 0.773438 -40.253906 2.144531 -41.683594 C 3.453125 -43.054688 5.121094 -42.875 6.667969 -41.386719 C 7.980469 -40.195312 9.289062 -38.945312 10.539062 -37.695312 C 11.96875 -36.265625 13.398438 -34.835938 14.886719 -33.527344 C 17.152344 -31.5625 19.53125 -29.65625 22.035156 -27.632812 L 23.699219 -26.320312 C 27.691406 -30.011719 29 -31.679688 31.144531 -34.242188 C 32.515625 -36.027344 34.300781 -38.171875 37.457031 -41.683594 C 38.230469 -42.578125 39.542969 -42.816406 40.433594 -42.28125 C 41.625 -41.625 42.042969 -40.316406 41.507812 -38.945312 C 40.078125 -35.195312 34.894531 -27.691406 29.894531 -22.035156 C 27.871094 -19.769531 27.453125 -20.128906 29.773438 -17.269531 C 30.429688 -16.4375 31.265625 -15.421875 32.214844 -14.351562 C 40.019531 -5.179688 42.28125 -1.132812 39.183594 0.417969 C 36.148438 2.023438 32.691406 -1.132812 25.605469 -11.078125 L 23.046875 -14.589844 C 20.902344 -12.742188 18.042969 -9.527344 15.066406 -6.253906 C 12.328125 -3.214844 9.527344 -0.117188 7.265625 2.023438 C 5.003906 3.988281 3.15625 4.226562 1.488281 2.621094 Z M 1.488281 2.621094" transform="translate(188.991 187.194)"/></g></g></g><g><g><g><path d="M 3.035156 0 L 8.902344 0 C 12.144531 0 14.496094 -2.351562 14.496094 -5.59375 L 14.496094 -12.671875 C 14.496094 -15.914062 12.144531 -18.265625 8.902344 -18.265625 L 3.035156 -18.265625 C 2.167969 -18.265625 1.507812 -17.601562 1.507812 -16.734375 L 1.507812 -1.53125 C 1.507812 -0.660156 2.167969 0 3.035156 0 Z M 7.992188 -4.132812 C 7.167969 -4.132812 6.507812 -4.792969 6.507812 -5.640625 L 6.507812 -12.625 C 6.507812 -13.46875 7.167969 -14.132812 7.992188 -14.132812 C 8.835938 -14.132812 9.496094 -13.46875 9.496094 -12.625 L 9.496094 -5.640625 C 9.496094 -4.792969 8.835938 -4.132812 7.992188 -4.132812 Z M 7.992188 -4.132812" transform="translate(71.748 238.111)"/></g></g></g><g><g><g><path d="M 3.035156 0 L 4.976562 0 C 5.84375 0 6.507812 -0.660156 6.507812 -1.53125 L 6.507812 -16.734375 C 6.507812 -17.601562 5.84375 -18.265625 4.976562 -18.265625 L 3.035156 -18.265625 C 2.167969 -18.265625 1.507812 -17.601562 1.507812 -16.734375 L 1.507812 -1.53125 C 1.507812 -0.660156 2.167969 0 3.035156 0 Z M 3.035156 0" transform="translate(87.75 238.111)"/></g></g></g><g><g><g><path d="M 7.101562 0 L 12.96875 0 C 13.8125 0 14.496094 -0.640625 14.496094 -1.53125 L 14.496094 -9.359375 C 14.496094 -10.25 13.859375 -10.914062 12.992188 -10.914062 L 11.050781 -10.914062 C 10.203125 -10.914062 9.496094 -10.296875 9.496094 -9.382812 L 9.496094 -5.640625 C 9.496094 -4.792969 8.8125 -4.132812 7.992188 -4.132812 C 7.167969 -4.132812 6.507812 -4.792969 6.507812 -5.640625 L 6.507812 -12.625 C 6.507812 -13.46875 7.167969 -14.132812 7.992188 -14.132812 L 12.96875 -14.132812 C 13.8125 -14.132812 14.496094 -14.769531 14.496094 -15.636719 L 14.496094 -16.734375 C 14.496094 -17.601562 13.835938 -18.265625 12.96875 -18.265625 L 7.101562 -18.265625 C 3.859375 -18.265625 1.507812 -15.914062 1.507812 -12.671875 L 1.507812 -5.59375 C 1.507812 -2.351562 3.859375 0 7.101562 0 Z M 7.101562 0" transform="translate(95.763 238.111)"/></g></g></g><g><g><g><path d="M 3.035156 0 L 4.976562 0 C 5.84375 0 6.507812 -0.660156 6.507812 -1.53125 L 6.507812 -16.734375 C 6.507812 -17.601562 5.84375 -18.265625 4.976562 -18.265625 L 3.035156 -18.265625 C 2.167969 -18.265625 1.507812 -17.601562 1.507812 -16.734375 L 1.507812 -1.53125 C 1.507812 -0.660156 2.167969 0 3.035156 0 Z M 3.035156 0" transform="translate(111.766 238.111)"/></g></g></g><g><g><g><path d="M 8.035156 0 L 10.046875 0 C 11.027344 0 11.550781 -0.503906 11.550781 -1.484375 L 11.550781 -12.648438 C 11.550781 -13.46875 12.238281 -14.132812 13.058594 -14.132812 L 15.089844 -14.132812 C 16.074219 -14.132812 16.597656 -14.65625 16.597656 -15.636719 L 16.597656 -16.757812 C 16.597656 -17.738281 16.074219 -18.265625 15.089844 -18.265625 L 3.011719 -18.285156 C 2.007812 -18.285156 1.507812 -17.761719 1.507812 -16.78125 L 1.507812 -15.636719 C 1.507812 -14.65625 2.03125 -14.132812 3.011719 -14.132812 L 5.023438 -14.132812 C 5.867188 -14.132812 6.550781 -13.46875 6.550781 -12.648438 L 6.550781 -1.507812 C 6.550781 -0.523438 7.054688 0 8.035156 0 Z M 8.035156 0" transform="translate(119.779 238.111)"/></g></g></g><g><g><g><path d="M 3.035156 0 L 4.976562 0 C 5.84375 0 6.507812 -0.660156 6.507812 -1.53125 L 6.507812 -4.222656 C 6.507812 -5.066406 7.167969 -5.730469 7.992188 -5.730469 C 8.835938 -5.730469 9.496094 -5.066406 9.496094 -4.246094 L 9.496094 -1.53125 C 9.496094 -0.660156 10.160156 0 11.027344 0 L 12.96875 0 C 13.835938 0 14.496094 -0.660156 14.496094 -1.53125 L 14.496094 -12.671875 C 14.496094 -15.914062 12.144531 -18.265625 8.902344 -18.265625 L 7.101562 -18.265625 C 3.859375 -18.265625 1.507812 -15.914062 1.507812 -12.671875 L 1.507812 -1.53125 C 1.507812 -0.660156 2.167969 0 3.035156 0 Z M 7.992188 -8.742188 C 7.167969 -8.742188 6.507812 -9.40625 6.507812 -10.226562 L 6.507812 -12.625 C 6.507812 -13.46875 7.167969 -14.132812 7.992188 -14.132812 C 8.835938 -14.132812 9.496094 -13.46875 9.496094 -12.625 L 9.496094 -10.226562 C 9.496094 -9.40625 8.835938 -8.742188 7.992188 -8.742188 Z M 7.992188 -8.742188" transform="translate(137.881 238.111)"/></g></g></g><g><g><g><path d="M 3.035156 0 L 11.824219 0 C 12.695312 0 13.355469 -0.660156 13.355469 -1.53125 L 13.355469 -2.601562 C 13.355469 -3.46875 12.695312 -4.132812 11.824219 -4.132812 L 7.992188 -4.132812 C 7.144531 -4.132812 6.507812 -4.816406 6.507812 -5.640625 L 6.507812 -16.734375 C 6.507812 -17.601562 5.84375 -18.265625 4.976562 -18.265625 L 3.035156 -18.265625 C 2.167969 -18.265625 1.507812 -17.601562 1.507812 -16.734375 L 1.507812 -1.53125 C 1.507812 -0.660156 2.167969 0 3.035156 0 Z M 3.035156 0" transform="translate(153.884 238.111)"/></g></g></g><g><g><g><path d="M 3.035156 0 L 4.976562 0 C 5.84375 0 6.507812 -0.660156 6.507812 -1.53125 L 6.507812 -4.222656 C 6.507812 -5.066406 7.167969 -5.730469 7.992188 -5.730469 C 8.835938 -5.730469 9.496094 -5.066406 9.496094 -4.246094 L 9.496094 -1.53125 C 9.496094 -0.660156 10.160156 0 11.027344 0 L 12.96875 0 C 13.835938 0 14.496094 -0.660156 14.496094 -1.53125 L 14.496094 -12.671875 C 14.496094 -15.914062 12.144531 -18.265625 8.902344 -18.265625 L 7.101562 -18.265625 C 3.859375 -18.265625 1.507812 -15.914062 1.507812 -12.671875 L 1.507812 -1.53125 C 1.507812 -0.660156 2.167969 0 3.035156 0 Z M 7.992188 -8.742188 C 7.167969 -8.742188 6.507812 -9.40625 6.507812 -10.226562 L 6.507812 -12.625 C 6.507812 -13.46875 7.167969 -14.132812 7.992188 -14.132812 C 8.835938 -14.132812 9.496094 -13.46875 9.496094 -12.625 L 9.496094 -10.226562 C 9.496094 -9.40625 8.835938 -8.742188 7.992188 -8.742188 Z M 7.992188 -8.742188" transform="translate(177.465 238.111)"/></g></g></g><g><g><g><path d="M 7.101562 0 L 12.96875 0 C 13.8125 0 14.496094 -0.640625 14.496094 -1.53125 L 14.496094 -9.359375 C 14.496094 -10.25 13.859375 -10.914062 12.992188 -10.914062 L 11.050781 -10.914062 C 10.203125 -10.914062 9.496094 -10.296875 9.496094 -9.382812 L 9.496094 -5.640625 C 9.496094 -4.792969 8.8125 -4.132812 7.992188 -4.132812 C 7.167969 -4.132812 6.507812 -4.792969 6.507812 -5.640625 L 6.507812 -12.625 C 6.507812 -13.46875 7.167969 -14.132812 7.992188 -14.132812 L 12.96875 -14.132812 C 13.8125 -14.132812 14.496094 -14.769531 14.496094 -15.636719 L 14.496094 -16.734375 C 14.496094 -17.601562 13.835938 -18.265625 12.96875 -18.265625 L 7.101562 -18.265625 C 3.859375 -18.265625 1.507812 -15.914062 1.507812 -12.671875 L 1.507812 -5.59375 C 1.507812 -2.351562 3.859375 0 7.101562 0 Z M 7.101562 0" transform="translate(193.468 238.111)"/></g></g></g><g><g><g><path d="M 3.035156 0 L 16.414062 0 C 17.28125 0 17.945312 -0.660156 17.945312 -1.53125 L 17.945312 -2.601562 C 17.945312 -3.46875 17.28125 -4.132812 16.414062 -4.132812 L 7.992188 -4.132812 C 7.167969 -4.132812 6.507812 -4.792969 6.507812 -5.640625 C 6.507812 -6.460938 7.167969 -7.144531 7.992188 -7.144531 L 15.5 -7.144531 C 16.347656 -7.144531 17.03125 -7.808594 17.03125 -8.699219 L 17.03125 -9.613281 C 17.03125 -10.480469 16.367188 -11.140625 15.5 -11.140625 L 7.992188 -11.140625 C 7.167969 -11.140625 6.507812 -11.804688 6.507812 -12.625 C 6.507812 -13.46875 7.167969 -14.132812 7.992188 -14.132812 L 16.414062 -14.132812 C 17.28125 -14.132812 17.945312 -14.792969 17.945312 -15.660156 L 17.945312 -16.734375 C 17.945312 -17.601562 17.28125 -18.265625 16.414062 -18.265625 L 3.035156 -18.265625 C 2.167969 -18.265625 1.507812 -17.601562 1.507812 -16.734375 L 1.507812 -1.53125 C 1.507812 -0.660156 2.167969 0 3.035156 0 Z M 3.035156 0" transform="translate(209.47 238.111)"/></g></g></g><g><g><g><path d="M 3.035156 0 L 4.976562 0 C 5.84375 0 6.507812 -0.660156 6.507812 -1.53125 L 6.507812 -12.648438 C 6.507812 -13.46875 7.167969 -14.132812 7.992188 -14.132812 C 8.835938 -14.132812 9.496094 -13.46875 9.496094 -12.648438 L 9.496094 -1.550781 C 9.496094 -0.683594 10.160156 0 11.027344 0 L 20.273438 0 C 21.140625 0 21.800781 -0.660156 21.800781 -1.53125 L 21.800781 -16.734375 C 21.800781 -17.601562 21.140625 -18.265625 20.273438 -18.265625 L 18.332031 -18.265625 C 17.464844 -18.265625 16.804688 -17.601562 16.804688 -16.734375 L 16.804688 -5.640625 C 16.804688 -4.792969 16.140625 -4.132812 15.296875 -4.132812 C 14.472656 -4.132812 13.8125 -4.792969 13.8125 -5.640625 L 13.8125 -16.710938 C 13.8125 -17.554688 13.148438 -18.265625 12.28125 -18.265625 L 3.035156 -18.265625 C 2.167969 -18.265625 1.507812 -17.601562 1.507812 -16.734375 L 1.507812 -1.53125 C 1.507812 -0.660156 2.167969 0 3.035156 0 Z M 3.035156 0" transform="translate(228.92 238.111)"/></g></g></g><g><g><g><path d="M 7.101562 0 L 16.390625 0 C 17.257812 0 17.921875 -0.660156 17.921875 -1.53125 L 17.921875 -2.601562 C 17.921875 -3.46875 17.257812 -4.132812 16.390625 -4.132812 L 7.992188 -4.132812 C 7.167969 -4.132812 6.507812 -4.792969 6.507812 -5.640625 L 6.507812 -12.625 C 6.507812 -13.46875 7.167969 -14.132812 7.992188 -14.132812 L 16.390625 -14.132812 C 17.238281 -14.132812 17.921875 -14.769531 17.921875 -15.636719 L 17.921875 -16.734375 C 17.921875 -17.601562 17.257812 -18.265625 16.390625 -18.265625 L 7.101562 -18.265625 C 3.859375 -18.265625 1.507812 -15.914062 1.507812 -12.671875 L 1.507812 -5.59375 C 1.507812 -2.351562 3.859375 0 7.101562 0 Z M 7.101562 0" transform="translate(252.227 238.111)"/></g></g></g><g><g><g><path d="M 7.054688 0 L 8.996094 0 C 9.863281 0 10.523438 -0.660156 10.523438 -1.53125 L 10.523438 -6.734375 C 10.523438 -7.578125 11.1875 -8.242188 12.007812 -8.242188 L 13.011719 -8.242188 C 13.878906 -8.242188 14.542969 -8.902344 14.542969 -9.792969 L 14.542969 -16.78125 C 14.542969 -17.625 13.835938 -18.265625 13.011719 -18.265625 L 11.074219 -18.265625 C 10.203125 -18.265625 9.542969 -17.601562 9.542969 -16.710938 L 9.542969 -12.671875 C 9.542969 -11.824219 8.859375 -11.140625 8.011719 -11.140625 C 7.191406 -11.140625 6.507812 -11.824219 6.507812 -12.671875 L 6.507812 -16.710938 C 6.507812 -17.601562 5.820312 -18.265625 4.976562 -18.265625 L 3.035156 -18.265625 C 2.191406 -18.265625 1.507812 -17.625 1.507812 -16.78125 L 1.507812 -9.792969 C 1.507812 -8.902344 2.167969 -8.242188 3.035156 -8.242188 L 4.019531 -8.242188 C 4.863281 -8.242188 5.523438 -7.558594 5.523438 -6.734375 L 5.523438 -1.53125 C 5.523438 -0.660156 6.1875 0 7.054688 0 Z M 7.054688 0" transform="translate(271.654 238.111)"/></g></g></g></svg>